<?xml version="1.0" encoding="iso-8859-1"?>
<!-- Generator: Adobe Illustrator 19.1.0, SVG Export Plug-In . SVG Version: 6.00 Build 0)  -->
<svg version="1.1" id="Capa_1" xmlns="http://www.w3.org/2000/svg" xmlns:xlink="http://www.w3.org/1999/xlink" x="0px" y="0px"
	 viewBox="0 0 439.48 439.48" style="enable-background:new 0 0 439.48 439.48;" xml:space="preserve">
<g>
	<path d="M439.48,92.38v226.63c0,17.81-14.49,32.3-32.3,32.3H300.93l12.16,13.09h18.23c4.14,0,7.5,3.36,7.5,7.5
		c0,4.14-3.36,7.5-7.5,7.5H108.16c-4.15,0-7.5-3.36-7.5-7.5c0-4.14,3.35-7.5,7.5-7.5h18.23l12.16-13.09H32.3
		c-17.81,0-32.3-14.49-32.3-32.3V92.38c0-17.81,14.49-32.3,32.3-32.3h374.88C424.99,60.08,439.48,74.57,439.48,92.38z
		 M424.48,310.51V100.89H15v209.62H424.48z M16.28,85.89H423.2c-2.58-6.33-8.78-10.81-16.02-10.81H32.3
		C25.06,75.08,18.85,79.56,16.28,85.89z M423.2,325.51H16.28c2.57,6.32,8.78,10.8,16.02,10.8h374.88
		C414.42,336.31,420.62,331.83,423.2,325.51z M292.61,364.4l-12.16-13.09H159.02l-12.16,13.09H292.61z"/>
	<path style="fill:#3DD0F2;" d="M423.2,85.89H16.28c2.57-6.33,8.78-10.81,16.02-10.81h374.88C414.42,75.08,420.62,79.56,423.2,85.89
		z"/>
	<path style="fill:#3DD0F2;" d="M16.28,325.51H423.2c-2.58,6.32-8.78,10.8-16.02,10.8H32.3C25.06,336.31,18.85,331.83,16.28,325.51z
		"/>
	<path d="M374.17,159.14c9.06,9.06,9.06,23.81,0,32.88c-4.53,4.53-10.49,6.8-16.44,6.8c-3.76,0-7.52-0.91-10.92-2.72l-59.89,47.21
		c1.36,3.03,2.04,6.29,2.04,9.55c0,5.94-2.26,11.88-6.79,16.4c-4.53,4.54-10.48,6.8-16.44,6.8c-5.95,0-11.9-2.26-16.44-6.8
		c-7-7-8.57-17.4-4.74-25.95l-59.89-47.21c-3.4,1.81-7.16,2.72-10.92,2.72c-3.76,0-7.52-0.91-10.92-2.72l-59.89,47.21
		c3.83,8.55,2.26,18.95-4.74,25.95c-4.54,4.54-10.49,6.8-16.45,6.8c-5.95,0-11.9-2.26-16.43-6.8c-9.07-9.06-9.07-23.81,0-32.87
		c7.39-7.4,18.57-8.76,27.36-4.08l59.88-47.22c-3.82-8.55-2.26-18.94,4.75-25.95c9.07-9.07,23.81-9.07,32.88,0
		c7.01,7.01,8.57,17.4,4.75,25.95l59.88,47.22c6.81-3.62,15.04-3.62,21.85,0l59.87-47.21c-1.33-2.96-2.05-6.18-2.05-9.52
		c0-6.21,2.42-12.05,6.81-16.44C350.35,150.07,365.1,150.07,374.17,159.14z M363.56,181.41c3.22-3.21,3.22-8.45,0-11.66
		c-1.61-1.61-3.72-2.42-5.83-2.42c-2.11,0-4.23,0.81-5.83,2.42c-1.56,1.55-2.42,3.63-2.42,5.83s0.86,4.27,2.42,5.83
		C355.11,184.63,360.35,184.63,363.56,181.41z M271.57,258.66c3.21-3.22,3.21-8.45,0-11.67c-1.61-1.61-3.72-2.41-5.84-2.41
		c-2.11,0-4.22,0.8-5.83,2.41c-3.22,3.22-3.22,8.45,0,11.67C263.12,261.87,268.35,261.87,271.57,258.66z M179.57,181.41
		c3.22-3.21,3.22-8.45,0-11.66c-1.61-1.61-3.72-2.42-5.83-2.42s-4.23,0.81-5.83,2.42c-3.22,3.21-3.22,8.45,0,11.66
		C171.12,184.63,176.36,184.63,179.57,181.41z M87.58,258.66c3.21-3.22,3.21-8.45,0-11.67c-1.61-1.61-3.72-2.41-5.84-2.41
		c-2.11,0-4.22,0.8-5.83,2.41c-3.21,3.22-3.21,8.45,0,11.67C79.13,261.88,84.36,261.87,87.58,258.66z"/>
	<path style="fill:#F48C6C;" d="M363.56,169.75c3.22,3.21,3.22,8.45,0,11.66c-3.21,3.22-8.45,3.22-11.66,0
		c-1.56-1.56-2.42-3.63-2.42-5.83s0.86-4.28,2.42-5.83c1.6-1.61,3.72-2.42,5.83-2.42C359.84,167.33,361.95,168.14,363.56,169.75z"/>
	<polygon style="fill:#3DD0F2;" points="280.45,351.31 292.61,364.4 146.86,364.4 159.02,351.31 	"/>
	<path style="fill:#F48C6C;" d="M271.57,246.99c3.21,3.22,3.21,8.45,0,11.67c-3.22,3.21-8.45,3.21-11.67,0
		c-3.22-3.22-3.22-8.45,0-11.67c1.61-1.61,3.72-2.41,5.83-2.41C267.85,244.58,269.96,245.38,271.57,246.99z"/>
	<path style="fill:#F48C6C;" d="M179.57,169.75c3.22,3.21,3.22,8.45,0,11.66c-3.21,3.22-8.45,3.22-11.66,0
		c-3.22-3.21-3.22-8.45,0-11.66c1.6-1.61,3.72-2.42,5.83-2.42S177.96,168.14,179.57,169.75z"/>
	<path style="fill:#F48C6C;" d="M87.58,246.99c3.21,3.22,3.21,8.45,0,11.67c-3.22,3.21-8.45,3.22-11.67,0
		c-3.21-3.22-3.21-8.45,0-11.67c1.61-1.61,3.72-2.41,5.83-2.41C83.86,244.58,85.97,245.38,87.58,246.99z"/>
</g>
<g>
</g>
<g>
</g>
<g>
</g>
<g>
</g>
<g>
</g>
<g>
</g>
<g>
</g>
<g>
</g>
<g>
</g>
<g>
</g>
<g>
</g>
<g>
</g>
<g>
</g>
<g>
</g>
<g>
</g>
</svg>
