<?xml version="1.0" encoding="iso-8859-1"?>
<!-- Generator: Adobe Illustrator 19.0.0, SVG Export Plug-In . SVG Version: 6.00 Build 0)  -->
<svg version="1.1" id="Layer_1" xmlns="http://www.w3.org/2000/svg" xmlns:xlink="http://www.w3.org/1999/xlink" x="0px" y="0px"
	 viewBox="0 0 512 512" style="enable-background:new 0 0 512 512;" xml:space="preserve">
<g>
	<g>
		<path d="M512,59.288c0-24.813-20.187-45-45-45H123.955c-24.813,0-45,20.187-45,45v91.142c0,12.039,4.761,22.98,12.488,31.064
			c-7.76,8.605-12.492,19.99-12.492,32.461v28.65c-32.184,6.911-56.389,35.571-56.389,69.79v25.677H15c-8.284,0-15,6.716-15,15
			v129.641c0,8.284,6.716,15,15,15c6.971,0,443.454,0,448.475,0c26.757,0,48.525-21.768,48.525-48.525v-84.092
			c0-12.996-5.145-24.805-13.493-33.525c8.348-8.72,13.493-20.529,13.493-33.525v-84.092c0-12.471-4.732-23.855-12.49-32.459
			c7.728-8.084,12.49-19.026,12.49-31.066V59.288z M52.563,312.394c0-22.822,18.566-41.389,41.389-41.389
			c22.828,0,41.4,18.567,41.4,41.389v19.176v6.5H52.563V312.394z M157.914,467.711H30V368.07c4.501,0,122.472,0,127.914,0
			C157.914,377.455,157.914,457.266,157.914,467.711z M463.475,467.712H187.914v-20.984c2.23,0.387,4.501,0.607,6.803,0.607
			c22.16,0,40.188-18.028,40.188-40.188c0-24.702-22.294-43.875-46.991-39.592c0-14.677,0.477-16.914-1.478-20.984h277.038
			c10.215,0,18.525,8.31,18.525,18.525v84.091H482C482,459.402,473.689,467.712,463.475,467.712z M187.914,414.72v-15.156
			c1.849-1.658,4.268-2.618,6.803-2.618c5.618,0,10.188,4.575,10.188,10.199c0,5.618-4.57,10.188-10.188,10.188
			C192.182,417.333,189.764,416.375,187.914,414.72z M482,298.045c0,10.215-8.311,18.525-18.525,18.525H165.352v-4.176
			c0-34.117-24.203-62.892-56.4-69.804v-28.636c0-10.215,8.311-18.525,18.525-18.525h335.998c10.215,0,18.525,8.31,18.525,18.525
			V298.045z M482,150.43c0,8.271-6.729,15-15,15c-3.852,0-340.006,0-343.045,0c-8.271,0-15-6.729-15-15V59.288
			c0-8.271,6.729-15,15-15H467c8.271,0,15,6.729,15,15V150.43z"/>
	</g>
</g>
<g>
	<g>
		<path d="M194.717,64.667c-22.161,0-40.19,18.029-40.19,40.19c-0.001,22.161,18.029,40.19,40.19,40.19
			c22.161,0,40.19-18.029,40.19-40.19C234.907,82.697,216.878,64.667,194.717,64.667z M194.717,115.047
			c-5.619,0-10.19-4.571-10.19-10.19c-0.001-5.619,4.571-10.19,10.19-10.19c5.619,0,10.19,4.571,10.19,10.19
			C204.907,110.477,200.336,115.047,194.717,115.047z"/>
	</g>
</g>
<g>
	<g>
		<path d="M421.429,89.857H270.287c-8.284,0-15,6.716-15,15s6.716,15,15,15h151.142c8.284,0,15-6.716,15-15
			S429.713,89.857,421.429,89.857z"/>
	</g>
</g>
<g>
	<g>
		<path d="M194.717,215.81c-22.161,0-40.19,18.029-40.19,40.19s18.029,40.19,40.19,40.19c22.161,0,40.19-18.029,40.19-40.19
			S216.878,215.81,194.717,215.81z M194.717,266.19c-5.619,0-10.19-4.571-10.19-10.19c0-5.619,4.571-10.19,10.19-10.19
			c5.619,0,10.19,4.571,10.19,10.19S200.336,266.19,194.717,266.19z"/>
	</g>
</g>
<g>
	<g>
		<path d="M421.429,241H270.287c-8.284,0-15,6.716-15,15s6.716,15,15,15h151.142c8.284,0,15-6.716,15-15S429.713,241,421.429,241z"
			/>
	</g>
</g>
<g>
	<g>
		<path d="M421.429,392.141H270.287c-8.284,0-15,6.716-15,15s6.716,15,15,15h151.142c8.284,0,15-6.716,15-15
			S429.713,392.141,421.429,392.141z"/>
	</g>
</g>
<g>
</g>
<g>
</g>
<g>
</g>
<g>
</g>
<g>
</g>
<g>
</g>
<g>
</g>
<g>
</g>
<g>
</g>
<g>
</g>
<g>
</g>
<g>
</g>
<g>
</g>
<g>
</g>
<g>
</g>
</svg>
